<?xml version="1.0" encoding="utf-8"?>
<!-- Generator: Adobe Illustrator 16.0.0, SVG Export Plug-In . SVG Version: 6.00 Build 0)  -->
<!DOCTYPE svg PUBLIC "-//W3C//DTD SVG 1.1//EN" "http://www.w3.org/Graphics/SVG/1.1/DTD/svg11.dtd">
<svg version="1.1" id="Layer_1" xmlns="http://www.w3.org/2000/svg" xmlns:xlink="http://www.w3.org/1999/xlink" x="0px" y="0px"
	 width="50px" height="50px" viewBox="0 0 50 50" enable-background="new 0 0 50 50" xml:space="preserve">
<polygon fill="#B6B6BF" points="25,27.634 6.543,16.126 6.543,39.138 43.458,39.138 43.458,16.126 "/>
<path fill="#B6B6BF" d="M43.458,40.045H6.543c-0.501,0-0.906-0.405-0.906-0.906V16.125c0-0.329,0.179-0.631,0.466-0.792
	c0.288-0.16,0.639-0.15,0.92,0.024L25,26.564l17.979-11.207c0.281-0.174,0.633-0.183,0.919-0.024
	c0.288,0.161,0.467,0.463,0.467,0.792v23.013C44.364,39.64,43.959,40.045,43.458,40.045 M7.45,38.232h35.102V17.76L25.48,28.4
	c-0.294,0.185-0.666,0.185-0.959,0L7.45,17.76V38.232z"/>
<polygon fill="#B6B6BF" points="40.46,10.863 9.541,10.863 25,20.5 "/>
<path fill="#B6B6BF" d="M25,21.406c-0.167,0-0.333-0.045-0.479-0.137L9.062,11.633c-0.344-0.215-0.503-0.631-0.392-1.019
	c0.111-0.389,0.467-0.658,0.871-0.658H40.46c0.403,0,0.761,0.269,0.871,0.658c0.111,0.388-0.048,0.804-0.392,1.019L25.48,21.27
	C25.333,21.361,25.167,21.406,25,21.406 M12.708,11.769L25,19.433l12.293-7.664H12.708z"/>
</svg>
