<?xml version="1.0" encoding="utf-8"?>
<!-- Generator: Adobe Illustrator 16.0.0, SVG Export Plug-In . SVG Version: 6.00 Build 0)  -->
<!DOCTYPE svg PUBLIC "-//W3C//DTD SVG 1.1//EN" "http://www.w3.org/Graphics/SVG/1.1/DTD/svg11.dtd">
<svg version="1.1" id="Layer_1" xmlns="http://www.w3.org/2000/svg" xmlns:xlink="http://www.w3.org/1999/xlink" x="0px" y="0px"
	 width="300px" height="200px" viewBox="0 0 300 200" enable-background="new 0 0 300 200" xml:space="preserve">
<line fill="none" stroke="#73726F" stroke-width="2.5" x1="9.885" y1="97.776" x2="286.667" y2="97.776"/>
<path fill="#73726F" d="M140.427,130.903v16.419h-6.102v-40.436h6.911c3.388,0,5.946,0.235,7.676,0.707
	c1.747,0.472,3.283,1.361,4.607,2.673c2.322,2.267,3.486,5.131,3.486,8.589c0,3.701-1.24,6.637-3.722,8.8
	c-2.479,2.164-5.822,3.248-10.03,3.248H140.427z M140.427,125.245h2.279c5.603,0,8.406-2.155,8.406-6.469
	c0-4.172-2.89-6.258-8.669-6.258h-2.016V125.245z"/>
<polygon fill="#73726F" points="211.369,141.589 230.773,141.589 230.773,147.324 201.338,147.324 221.19,112.623 204.583,112.623 
	204.583,106.886 231.217,106.886 "/>
<path fill="#73726F" d="M20.831,74.521v16.419h-6.103V50.506h6.913c3.389,0,5.944,0.235,7.675,0.708
	c1.745,0.47,3.282,1.36,4.609,2.669c2.322,2.269,3.483,5.133,3.483,8.59c0,3.703-1.239,6.635-3.719,8.799
	c-2.48,2.167-5.824,3.248-10.03,3.248H20.831z M20.831,68.863h2.277c5.604,0,8.406-2.155,8.406-6.469
	c0-4.173-2.89-6.257-8.669-6.257h-2.014V68.863z"/>
<path fill="#73726F" d="M57.391,73.709L69.91,90.941h-7.466L50.896,74.389h-1.102v16.552h-6.101V50.505h7.149
	c5.343,0,9.2,1.005,11.576,3.013c2.618,2.235,3.927,5.185,3.927,8.852c0,2.864-0.82,5.325-2.46,7.385
	C62.244,71.815,60.078,73.133,57.391,73.709 M49.794,69.074h1.938c5.779,0,8.668-2.208,8.668-6.626c0-4.137-2.811-6.206-8.433-6.206
	h-2.174V69.074z"/>
<polygon fill="#73726F" points="130.592,73.474 117.393,50.505 124.41,50.505 133.657,66.665 142.927,50.505 149.946,50.505 
	136.695,73.474 136.695,90.943 130.592,90.943 "/>
<polygon fill="#73726F" points="176.922,56.242 160.71,56.242 160.71,65.958 176.451,65.958 176.451,71.692 160.71,71.692 
	160.71,85.208 176.922,85.208 176.922,90.941 154.608,90.941 154.608,50.505 176.922,50.505 "/>
<path fill="#73726F" d="M214.817,52.666v7.215c-3.527-2.95-7.177-4.425-10.947-4.425c-4.158,0-7.656,1.492-10.502,4.478
	c-2.864,2.968-4.296,6.6-4.296,10.894c0,4.243,1.432,7.823,4.296,10.738c2.863,2.917,6.372,4.373,10.526,4.373
	c2.146,0,3.973-0.347,5.475-1.046c0.839-0.35,1.707-0.82,2.608-1.415c0.896-0.593,1.844-1.31,2.84-2.146v7.371
	c-3.492,1.981-7.16,2.973-11,2.973c-5.781,0-10.713-2.017-14.797-6.049c-4.068-4.069-6.104-8.975-6.104-14.717
	c0-5.151,1.706-9.745,5.108-13.778c4.192-4.94,9.612-7.411,16.265-7.411C207.919,49.72,211.431,50.702,214.817,52.666"/>
<polygon fill="#73726F" points="233.673,56.242 233.673,90.941 227.571,90.941 227.571,56.242 218.274,56.242 218.274,50.505 
	242.945,50.505 242.945,56.242 "/>
<path fill="#159246" d="M115.957,70.44c0,11.599-9.404,21-21,21c-11.6,0-21.003-9.401-21.003-21
	c0-11.601,9.403-21.003,21.003-21.003C106.553,49.437,115.957,58.839,115.957,70.44"/>
<path fill="#E44044" d="M289.229,70.44c0,11.599-9.399,21-21.001,21c-11.601,0-21-9.401-21-21c0-11.601,9.399-21.003,21-21.003
	C279.829,49.437,289.229,58.839,289.229,70.44"/>
<polygon fill="#1B75BB" points="198.403,149.223 176.25,100.239 154.091,149.223 "/>
</svg>
