<?xml version="1.0" encoding="utf-8"?>
<!-- Generator: Adobe Illustrator 16.0.0, SVG Export Plug-In . SVG Version: 6.00 Build 0)  -->
<!DOCTYPE svg PUBLIC "-//W3C//DTD SVG 1.1//EN" "http://www.w3.org/Graphics/SVG/1.1/DTD/svg11.dtd">
<svg version="1.1" id="Layer_1" xmlns="http://www.w3.org/2000/svg" xmlns:xlink="http://www.w3.org/1999/xlink" x="0px" y="0px"
	 width="1000px" height="1000px" viewBox="0 0 1000 1000" enable-background="new 0 0 1000 1000" xml:space="preserve">
<rect x="-15" y="-19.31" fill="#2F2F37" width="1134.143" height="1048.31"/>
<g>
	<defs>
		<rect id="SVGID_1_" x="-940" y="-80" width="1920" height="1080"/>
	</defs>
	<clipPath id="SVGID_2_">
		<use xlink:href="#SVGID_1_"  overflow="visible"/>
	</clipPath>
</g>
<g>
	<defs>
		<rect id="SVGID_3_" x="-940" y="-80" width="1920" height="1080"/>
	</defs>
	<clipPath id="SVGID_4_">
		<use xlink:href="#SVGID_3_"  overflow="visible"/>
	</clipPath>
	<path clip-path="url(#SVGID_4_)" fill="#249046" d="M146.65,776.953c0,5.08-4.119,9.199-9.2,9.199c-5.08,0-9.199-4.119-9.199-9.199
		c0-5.082,4.119-9.199,9.199-9.199C142.531,767.754,146.65,771.871,146.65,776.953"/>
	<path clip-path="url(#SVGID_4_)" fill="#E14044" d="M146.65,817.695c0,5.08-4.119,9.198-9.2,9.198c-5.08,0-9.199-4.118-9.199-9.198
		c0-5.082,4.119-9.201,9.199-9.201C142.531,808.494,146.65,812.613,146.65,817.695"/>
</g>
<text transform="matrix(1 0 0 1 154.3799 821.4111)"><tspan x="0" y="0" fill="#DDE2E8" font-family="'FuturaStd-Heavy'" font-size="11">ANTE</tspan><tspan x="28.754" y="0" fill="#DDE2E8" font-family="'FuturaStd-Heavy'" font-size="11">S</tspan></text>
<text transform="matrix(1 0 0 1 154.8398 779.9521)"><tspan x="0" y="0" fill="#DDE2E8" font-family="'FuturaStd-Heavy'" font-size="11">DES</tspan><tspan x="20.239" y="0" fill="#DDE2E8" font-family="'FuturaStd-Heavy'" font-size="11">P</tspan><tspan x="26.696" y="0" fill="#DDE2E8" font-family="'FuturaStd-Heavy'" font-size="11">UE</tspan><tspan x="40.645" y="0" fill="#DDE2E8" font-family="'FuturaStd-Heavy'" font-size="11">S</tspan></text>
<text transform="matrix(1 0 0 1 287.1699 857.0615)"><tspan x="0" y="0" fill="#DDE2E8" font-family="'FuturaStd-Heavy'" font-size="11">G</tspan><tspan x="8.778" y="0" fill="#DDE2E8" font-family="'FuturaStd-Heavy'" font-size="11">RUPO </tspan><tspan x="43.064" y="0" fill="#DDE2E8" font-family="'FuturaStd-Heavy'" font-size="11">1</tspan></text>
<g>
	<defs>
		<rect id="SVGID_5_" x="-940" y="-80" width="1920" height="1080"/>
	</defs>
	<clipPath id="SVGID_6_">
		<use xlink:href="#SVGID_5_"  overflow="visible"/>
	</clipPath>
	
		<line clip-path="url(#SVGID_6_)" fill="none" stroke="#249046" stroke-width="12" stroke-linecap="round" stroke-miterlimit="10" x1="290.9" y1="553.078" x2="290.9" y2="821.41"/>
	
		<line clip-path="url(#SVGID_6_)" fill="none" stroke="#E14044" stroke-width="12" stroke-linecap="round" stroke-linejoin="round" stroke-miterlimit="10" x1="330.9" y1="400.377" x2="330.9" y2="821.41"/>
</g>
<text transform="matrix(1 0 0 1 412.6299 857.0674)"><tspan x="0" y="0" fill="#DDE2E8" font-family="'FuturaStd-Heavy'" font-size="11">G</tspan><tspan x="8.778" y="0" fill="#DDE2E8" font-family="'FuturaStd-Heavy'" font-size="11">RUPO </tspan><tspan x="43.064" y="0" fill="#DDE2E8" font-family="'FuturaStd-Heavy'" font-size="11">2</tspan></text>
<g>
	<defs>
		<rect id="SVGID_7_" x="-940" y="-80" width="1920" height="1080"/>
	</defs>
	<clipPath id="SVGID_8_">
		<use xlink:href="#SVGID_7_"  overflow="visible"/>
	</clipPath>
	
		<line clip-path="url(#SVGID_8_)" fill="none" stroke="#249046" stroke-width="12" stroke-linecap="round" stroke-miterlimit="10" x1="416.35" y1="541.18" x2="416.35" y2="821.41"/>
	
		<line clip-path="url(#SVGID_8_)" fill="none" stroke="#E14044" stroke-width="12" stroke-linecap="round" stroke-linejoin="round" stroke-miterlimit="10" x1="456.35" y1="347.822" x2="456.35" y2="821.41"/>
</g>
<text transform="matrix(1 0 0 1 545.5 857.0674)"><tspan x="0" y="0" fill="#DDE2E8" font-family="'FuturaStd-Heavy'" font-size="11">G</tspan><tspan x="8.778" y="0" fill="#DDE2E8" font-family="'FuturaStd-Heavy'" font-size="11">RUPO </tspan><tspan x="43.064" y="0" fill="#DDE2E8" font-family="'FuturaStd-Heavy'" font-size="11">3</tspan></text>
<g>
	<defs>
		<rect id="SVGID_9_" x="-940" y="-80" width="1920" height="1080"/>
	</defs>
	<clipPath id="SVGID_10_">
		<use xlink:href="#SVGID_9_"  overflow="visible"/>
	</clipPath>
	
		<line clip-path="url(#SVGID_10_)" fill="none" stroke="#249046" stroke-width="12" stroke-linecap="round" stroke-miterlimit="10" x1="549.22" y1="578.859" x2="549.22" y2="821.41"/>
	
		<line clip-path="url(#SVGID_10_)" fill="none" stroke="#E14044" stroke-width="12" stroke-linecap="round" stroke-linejoin="round" stroke-miterlimit="10" x1="589.22" y1="393.436" x2="589.22" y2="821.411"/>
</g>
<text transform="matrix(1 0 0 1 678.3701 857.0674)"><tspan x="0" y="0" fill="#DDE2E8" font-family="'FuturaStd-Heavy'" font-size="11">G</tspan><tspan x="8.778" y="0" fill="#DDE2E8" font-family="'FuturaStd-Heavy'" font-size="11">RUPO </tspan><tspan x="43.064" y="0" fill="#DDE2E8" font-family="'FuturaStd-Heavy'" font-size="11">4</tspan></text>
<g>
	<defs>
		<rect id="SVGID_11_" x="-940" y="-80" width="1920" height="1080"/>
	</defs>
	<clipPath id="SVGID_12_">
		<use xlink:href="#SVGID_11_"  overflow="visible"/>
	</clipPath>
	
		<line clip-path="url(#SVGID_12_)" fill="none" stroke="#249046" stroke-width="12" stroke-linecap="round" stroke-miterlimit="10" x1="682.09" y1="278.412" x2="682.09" y2="821.41"/>
	
		<line clip-path="url(#SVGID_12_)" fill="none" stroke="#E14044" stroke-width="12" stroke-linecap="round" stroke-linejoin="round" stroke-miterlimit="10" x1="722.09" y1="260.565" x2="722.09" y2="821.411"/>
	
		<line clip-path="url(#SVGID_12_)" fill="none" stroke="#249046" stroke-width="12" stroke-linecap="round" stroke-miterlimit="10" x1="809.15" y1="372.463" x2="809.15" y2="821.41"/>
	
		<line clip-path="url(#SVGID_12_)" fill="none" stroke="#E14044" stroke-width="12" stroke-linecap="round" stroke-linejoin="round" stroke-miterlimit="10" x1="849.15" y1="357.708" x2="849.15" y2="821.411"/>
</g>
<text transform="matrix(1 0 0 1 813.7598 857.0674)"><tspan x="0" y="0" fill="#DDE2E8" font-family="'FuturaStd-Heavy'" font-size="11">G</tspan><tspan x="8.778" y="0" fill="#DDE2E8" font-family="'FuturaStd-Heavy'" font-size="11">RUPO</tspan><tspan x="39.226" y="0" fill="#DDE2E8" font-family="'FuturaStd-Heavy'" font-size="11"> </tspan></text>
<text transform="matrix(1 0 0 1 809.1504 869.0684)"><tspan x="0" y="0" fill="#DDE2E8" font-family="'FuturaStd-Heavy'" font-size="11">C</tspan><tspan x="7.271" y="0" fill="#DDE2E8" font-family="'FuturaStd-Heavy'" font-size="11">O</tspan><tspan x="16.521" y="0" fill="#DDE2E8" font-family="'FuturaStd-Heavy'" font-size="11">NTR</tspan><tspan x="37.949" y="0" fill="#DDE2E8" font-family="'FuturaStd-Heavy'" font-size="11">O</tspan><tspan x="47.2" y="0" fill="#DDE2E8" font-family="'FuturaStd-Heavy'" font-size="11">L</tspan></text>
</svg>
