<?xml version="1.0" encoding="utf-8"?>
<!-- Generator: Adobe Illustrator 16.0.0, SVG Export Plug-In . SVG Version: 6.00 Build 0)  -->
<!DOCTYPE svg PUBLIC "-//W3C//DTD SVG 1.1//EN" "http://www.w3.org/Graphics/SVG/1.1/DTD/svg11.dtd">
<svg version="1.1" id="Layer_1" xmlns="http://www.w3.org/2000/svg" xmlns:xlink="http://www.w3.org/1999/xlink" x="0px" y="0px"
	 width="50px" height="50px" viewBox="0 0 50 50" enable-background="new 0 0 50 50" xml:space="preserve">
<path fill="#13556D" d="M40.632,16.867c0.014,0.297,0.021,0.593,0.021,0.894c0,9.159-6.971,19.717-19.716,19.717
	c-3.915,0-7.555-1.146-10.624-3.112c0.545,0.062,1.095,0.095,1.654,0.095c3.249,0,6.234-1.105,8.604-2.965
	c-3.03-0.058-5.59-2.062-6.471-4.812c0.423,0.079,0.856,0.124,1.303,0.124c0.633,0,1.245-0.085,1.824-0.243
	c-3.166-0.639-5.558-3.438-5.558-6.794v-0.087c0.937,0.519,2.003,0.829,3.14,0.866c-1.859-1.241-3.081-3.363-3.081-5.768
	c0-1.271,0.341-2.462,0.938-3.483c3.416,4.192,8.523,6.951,14.282,7.239c-0.118-0.507-0.18-1.035-0.18-1.58
	c0-3.826,3.103-6.926,6.931-6.926c1.991,0,3.792,0.842,5.055,2.187c1.578-0.31,3.062-0.888,4.402-1.683
	c-0.52,1.621-1.616,2.976-3.047,3.833c1.402-0.165,2.739-0.539,3.98-1.087C43.161,14.669,41.985,15.89,40.632,16.867"/>
</svg>
