<?xml version="1.0" encoding="utf-8"?>
<!-- Generator: Adobe Illustrator 16.0.0, SVG Export Plug-In . SVG Version: 6.00 Build 0)  -->
<!DOCTYPE svg PUBLIC "-//W3C//DTD SVG 1.1//EN" "http://www.w3.org/Graphics/SVG/1.1/DTD/svg11.dtd">
<svg version="1.1" id="Layer_1" xmlns="http://www.w3.org/2000/svg" xmlns:xlink="http://www.w3.org/1999/xlink" x="0px" y="0px"
	 width="50px" height="50px" viewBox="0 0 50 50" enable-background="new 0 0 50 50" xml:space="preserve">
<path id="The_Sharpness" opacity="0.12" fill-rule="evenodd" clip-rule="evenodd" d="M21.626,19.834l8.887,5.935l1.246-0.648
	L21.626,19.834z"/>
<g id="Lozenge">
	<g>
		<path fill="#FFFFFF" d="M43.876,18.009c0,0-0.367-2.584-1.491-3.722c-1.426-1.494-3.024-1.501-3.758-1.588
			c-5.248-0.38-13.119-0.38-13.119-0.38h-0.017c0,0-7.872,0-13.12,0.38c-0.733,0.087-2.331,0.095-3.758,1.588
			c-1.125,1.138-1.49,3.722-1.49,3.722s-0.375,3.035-0.375,6.07v2.845c0,3.035,0.375,6.069,0.375,6.069s0.366,2.585,1.49,3.723
			c1.427,1.493,3.3,1.446,4.135,1.604c3,0.287,12.75,0.376,12.75,0.376s7.879-0.012,13.127-0.391
			c0.733-0.088,2.332-0.096,3.758-1.589c1.124-1.138,1.491-3.723,1.491-3.723s0.374-3.034,0.374-6.069v-2.845
			C44.25,21.044,43.876,18.009,43.876,18.009z M21.627,30.372l-0.001-10.538l10.133,5.287L21.627,30.372z"/>
	</g>
</g>
</svg>
