<?xml version="1.0" encoding="utf-8"?>
<!-- Generator: Adobe Illustrator 16.0.0, SVG Export Plug-In . SVG Version: 6.00 Build 0)  -->
<!DOCTYPE svg PUBLIC "-//W3C//DTD SVG 1.1//EN" "http://www.w3.org/Graphics/SVG/1.1/DTD/svg11.dtd">
<svg version="1.1" id="Layer_1" xmlns="http://www.w3.org/2000/svg" xmlns:xlink="http://www.w3.org/1999/xlink" x="0px" y="0px"
	 width="50px" height="50px" viewBox="0 0 50 50" enable-background="new 0 0 50 50" xml:space="preserve">
<g>
	<path fill="#FFFFFF" d="M28.354,31.064c-0.131,0-0.261,0.031-0.388,0.088c-0.128,0.062-0.252,0.153-0.376,0.282v5.685
		c0.147,0.145,0.293,0.259,0.435,0.321c0.141,0.066,0.284,0.101,0.438,0.101c0.225,0,0.388-0.066,0.494-0.197
		c0.103-0.129,0.155-0.337,0.155-0.63v-4.707c0-0.312-0.062-0.546-0.192-0.704C28.789,31.145,28.596,31.064,28.354,31.064z"/>
	<polygon fill="#FFFFFF" points="16.558,20.994 18.868,20.994 18.868,15.346 21.557,7.373 19.21,7.373 17.779,12.819 17.633,12.819 
		16.133,7.373 13.805,7.373 16.558,15.596 	"/>
	<path fill="#FFFFFF" d="M24.688,21.25c0.934,0,1.666-0.247,2.199-0.735c0.531-0.493,0.794-1.162,0.794-2.023V13.3
		c0-0.761-0.271-1.395-0.809-1.879c-0.546-0.483-1.24-0.726-2.09-0.726c-0.933,0-1.678,0.229-2.23,0.691
		c-0.549,0.458-0.827,1.078-0.827,1.856v5.209c0,0.854,0.271,1.53,0.807,2.037C23.071,20.994,23.791,21.25,24.688,21.25z
		 M23.837,13.167c0-0.221,0.08-0.396,0.232-0.532c0.159-0.136,0.363-0.202,0.612-0.202c0.274,0,0.493,0.066,0.661,0.202
		c0.167,0.137,0.25,0.312,0.25,0.532v5.473c0,0.268-0.083,0.484-0.249,0.638c-0.163,0.154-0.382,0.228-0.661,0.228
		c-0.271,0-0.48-0.07-0.624-0.228c-0.146-0.15-0.221-0.36-0.221-0.638L23.837,13.167L23.837,13.167z"/>
	<path fill="#FFFFFF" d="M34.639,31.096c-0.29,0-0.496,0.083-0.624,0.255c-0.126,0.158-0.188,0.436-0.188,0.819v0.919h1.612V32.17
		c0-0.384-0.066-0.661-0.191-0.819C35.123,31.179,34.916,31.096,34.639,31.096z"/>
	<path fill="#FFFFFF" d="M36.437,24.163H13.561c-3.636,0-6.582,2.953-6.582,6.585v5.292c0,3.635,2.946,6.588,6.582,6.588h22.875
		c3.635,0,6.584-2.951,6.584-6.588v-5.292C43.021,27.113,40.071,24.163,36.437,24.163z M18.368,28.284h-2.127v10.567h-2.054V28.284
		h-2.125v-1.798h6.307V28.284z M24.375,38.852h-1.824v-1.003c-0.336,0.37-0.686,0.651-1.051,0.845
		c-0.364,0.197-0.718,0.291-1.059,0.291c-0.424,0-0.739-0.133-0.954-0.409c-0.211-0.272-0.32-0.674-0.32-1.219v-7.629h1.824v7
		c0,0.216,0.04,0.37,0.112,0.467c0.079,0.102,0.205,0.146,0.374,0.146c0.133,0,0.304-0.062,0.509-0.19
		c0.207-0.131,0.394-0.294,0.564-0.492v-6.93h1.824V38.852L24.375,38.852z M30.99,36.97c0,0.642-0.143,1.135-0.43,1.481
		c-0.283,0.349-0.699,0.516-1.238,0.516c-0.359,0-0.676-0.062-0.952-0.198c-0.278-0.133-0.544-0.334-0.78-0.616v0.699h-1.845V26.486
		h1.845v3.979c0.245-0.272,0.507-0.488,0.78-0.634c0.279-0.145,0.56-0.214,0.843-0.214c0.579,0,1.018,0.193,1.322,0.58
		c0.306,0.392,0.455,0.96,0.455,1.707V36.97z M37.314,34.51h-3.488v1.717c0,0.479,0.059,0.812,0.178,1.003
		c0.12,0.184,0.328,0.277,0.618,0.277c0.304,0,0.515-0.08,0.636-0.238c0.115-0.158,0.18-0.506,0.18-1.044v-0.412h1.876v0.466
		c0,0.937-0.227,1.641-0.688,2.116c-0.453,0.47-1.138,0.703-2.046,0.703c-0.816,0-1.461-0.246-1.929-0.752
		c-0.467-0.497-0.704-1.188-0.704-2.068v-4.096c0-0.788,0.257-1.438,0.773-1.936c0.519-0.498,1.18-0.744,1.996-0.744
		c0.837,0,1.477,0.229,1.924,0.691c0.449,0.463,0.674,1.122,0.674,1.988L37.314,34.51L37.314,34.51z"/>
	<path fill="#FFFFFF" d="M30.781,21.144c0.386,0,0.781-0.114,1.19-0.325c0.411-0.211,0.806-0.528,1.18-0.938v1.113h2.055V10.946
		h-2.055v7.629c-0.19,0.22-0.401,0.396-0.63,0.542c-0.23,0.141-0.425,0.211-0.573,0.211c-0.192,0-0.335-0.052-0.419-0.162
		c-0.082-0.106-0.132-0.278-0.132-0.515v-7.704h-2.051v8.398c0,0.599,0.122,1.047,0.361,1.342
		C29.949,20.99,30.303,21.144,30.781,21.144z"/>
</g>
</svg>
